<svg xmlns="http://www.w3.org/2000/svg" xmlns:xlink="http://www.w3.org/1999/xlink" version="1.1" width="1000" height="1000" viewBox="0 0 1000 1000" xml:space="preserve">
<desc>Created with Fabric.js 3.5.0</desc>
<defs>
</defs>
<rect x="0" y="0" width="100%" height="100%" fill="#ffffff"/>
<g transform="matrix(0.256 0 0 0.256 256 347.5)" id="542323">
<g style="" vector-effect="non-scaling-stroke">
		<g transform="matrix(3.9063 0 0 3.9063 0.0081 0.0081)" id="tight-bounds">
<path style="stroke: none; stroke-width: 1; stroke-dasharray: none; stroke-linecap: butt; stroke-dashoffset: 0; stroke-linejoin: miter; stroke-miterlimit: 10; is-custom-font: none; font-file-url: none; fill: rgb(255,133,27); fill-rule: nonzero; opacity: 1;" transform=" translate(-256, -160)" d="M 96 160 c 0 -88.366 71.634 -160 160 -160 c 88.366 0 160 71.634 160 160 c 0 88.366 -71.634 160 -160 160 c -88.366 0 -160 -71.634 -160 -160 z" stroke-linecap="round"/>
</g>
		<g transform="matrix(13.7901 0 0 13.7901 0.0171 -0.0003)" id="text-0">
<path style="stroke: none; stroke-width: 1; stroke-dasharray: none; stroke-linecap: butt; stroke-dashoffset: 0; stroke-linejoin: miter; stroke-miterlimit: 4; is-custom-font: none; font-file-url: none; fill: rgb(255,255,255); fill-rule: nonzero; opacity: 1;" transform=" translate(-28.905, 16.725)" d="M 10.69 -33.45 L 18.21 -33.45 Q 20.68 -33.45 22.68 -32.71 Q 24.68 -31.98 26.09 -30.71 Q 27.49 -29.44 28.25 -27.75 Q 29 -26.05 29 -24.15 L 29 -24.15 L 29 -9.3 Q 29 -7.4 28.25 -5.7 Q 27.49 -4 26.09 -2.73 Q 24.68 -1.46 22.68 -0.73 Q 20.68 0 18.21 0 L 18.21 0 L 10.69 0 Q 8.23 0 6.23 -0.73 Q 4.22 -1.46 2.82 -2.73 Q 1.42 -4 0.66 -5.7 Q -0.1 -7.4 -0.1 -9.3 L -0.1 -9.3 L -0.1 -24.15 Q -0.1 -26.05 0.66 -27.75 Q 1.42 -29.44 2.82 -30.71 Q 4.22 -31.98 6.23 -32.71 Q 8.23 -33.45 10.69 -33.45 L 10.69 -33.45 Z M 19.21 -31.25 L 16.65 -31.25 L 16.65 -15.41 L 16.31 -13.94 L 14.7 -13.65 L 11.06 -13.65 L 11.06 -11.06 L 14.84 -11.06 L 17.31 -11.4 L 19.21 -12.89 L 19.21 -31.25 Z M 39.6 -33.45 L 47.12 -33.45 Q 49.58 -33.45 51.58 -32.71 Q 53.59 -31.98 54.99 -30.71 Q 56.39 -29.44 57.15 -27.75 Q 57.91 -26.05 57.91 -24.15 L 57.91 -24.15 L 57.91 -9.3 Q 57.91 -7.4 57.15 -5.7 Q 56.39 -4 54.99 -2.73 Q 53.59 -1.46 51.58 -0.73 Q 49.58 0 47.12 0 L 47.12 0 L 39.6 0 Q 37.13 0 35.13 -0.73 Q 33.13 -1.46 31.72 -2.73 Q 30.32 -4 29.56 -5.7 Q 28.81 -7.4 28.81 -9.3 L 28.81 -9.3 L 28.81 -24.15 Q 28.81 -26.05 29.56 -27.75 Q 30.32 -29.44 31.72 -30.71 Q 33.13 -31.98 35.13 -32.71 Q 37.13 -33.45 39.6 -33.45 L 39.6 -33.45 Z M 51.71 -14.99 L 51.71 -18.7 L 51.36 -20.8 L 49.8 -22.34 L 47.26 -22.61 L 41.79 -22.61 L 40.31 -22.9 Q 40.18 -23.32 40.13 -23.65 Q 40.09 -23.97 39.96 -24.34 L 39.96 -24.34 L 39.96 -26.9 L 40.31 -28.34 L 41.92 -28.66 L 48.12 -28.66 L 50.41 -28.2 L 51 -30.86 L 48.17 -31.25 L 41.75 -31.25 L 39.3 -30.91 L 37.72 -29.35 L 37.4 -27.29 L 37.4 -23.95 L 37.72 -21.9 L 39.3 -20.36 L 41.75 -20.04 L 47.26 -20.04 L 48.75 -19.8 Q 48.83 -19.43 48.92 -19.12 Q 49.02 -18.8 49.09 -18.46 L 49.09 -18.46 L 49.09 -15.26 Q 49.05 -14.94 48.94 -14.58 Q 48.83 -14.21 48.75 -13.89 L 48.75 -13.89 L 47.17 -13.65 L 41.11 -13.65 L 38.72 -14.04 L 38.11 -11.4 L 40.96 -11.06 L 47.31 -11.06 L 49.8 -11.35 L 51.36 -12.89 L 51.71 -14.99 Z" stroke-linecap="round"/>
</g>
		<g transform="matrix(3.9063 0 0 3.9063 0.0129 0.0081)" id="tight-bounds">
<rect style="stroke: none; stroke-width: 1; stroke-dasharray: none; stroke-linecap: butt; stroke-dashoffset: 0; stroke-linejoin: miter; stroke-miterlimit: 4; is-custom-font: none; font-file-url: none; fill: none; fill-rule: nonzero; opacity: 1;" x="-256" y="-160" rx="0" ry="0" width="512" height="320"/>
</g>
</g>
</g>
</svg>